<svg xmlns="http://www.w3.org/2000/svg" viewBox="0 0 67.77 73.61"><defs><style>.cls-1{fill:#ccc;}.cls-2{fill:#f2f2f2;}.cls-3{fill:none;stroke:#000;stroke-miterlimit:10;}</style></defs><title>Asset 5</title><g id="Layer_2" data-name="Layer 2"><g id="Main"><g id="Resume_Icon" data-name="Resume Icon"><path class="cls-1" d="M11.19,3.18S2.24,50.81,4,73.61H58S59.69,28,67.77,3.18Z"/><path class="cls-2" d="M7.44,0s-9,47.63-7.22,70.43h54S55.94,24.83,64,0Z"/><line class="cls-3" x1="9.75" y1="6.06" x2="29.09" y2="6.06"/><line class="cls-3" x1="9.17" y1="8.23" x2="28.51" y2="8.23"/><line class="cls-3" x1="8.88" y1="10.54" x2="28.22" y2="10.54"/><line class="cls-3" x1="29.67" y1="54.27" x2="49.01" y2="54.27"/><line class="cls-3" x1="29.09" y1="56.43" x2="48.43" y2="56.43"/><line class="cls-3" x1="28.8" y1="58.74" x2="48.14" y2="58.74"/><line class="cls-3" x1="9.46" y1="20.35" x2="54.64" y2="20.35"/><line class="cls-3" x1="8.59" y1="24.39" x2="53.77" y2="24.39"/><line class="cls-3" x1="7.73" y1="27.57" x2="52.9" y2="27.57"/><line class="cls-3" x1="6.86" y1="31.61" x2="52.04" y2="31.61"/><line class="cls-3" x1="6" y1="35.65" x2="51.17" y2="35.65"/><line class="cls-3" x1="5.13" y1="39.69" x2="50.31" y2="39.69"/><line class="cls-3" x1="4.26" y1="42.87" x2="49.44" y2="42.87"/><line class="cls-3" x1="3.4" y1="46.91" x2="48.57" y2="46.91"/></g></g></g></svg>