<svg xmlns="http://www.w3.org/2000/svg" viewBox="0 0 705.27 554.96"><defs><style>.cls-1{fill:#ffd14c;}.cls-2{fill:#fff;}</style></defs><title>adaptable-illustration_1</title><g id="Layer_2" data-name="Layer 2"><g id="Main"><circle class="cls-1" cx="427.8" cy="277.48" r="277.48"/><path d="M15.06,127.78a15.34,15.34,0,0,1-7.64-1.92A14,14,0,0,1,2,120.47a15.75,15.75,0,0,1-2-8.06A15.91,15.91,0,0,1,2.11,104a14,14,0,0,1,5.72-5.35A17.81,17.81,0,0,1,16,96.83a13.21,13.21,0,0,1,7.42,2.33,13.25,13.25,0,0,1,5,5.88l-.52,1,.45-8.36h3.16v29.44H28v-9.11l.75,1.36a9.24,9.24,0,0,1-1.8,3,16.44,16.44,0,0,1-7.19,4.67A15.22,15.22,0,0,1,15.06,127.78Zm.75-3a12.74,12.74,0,0,0,6-1.39,11.45,11.45,0,0,0,6.21-9.6v-4.22a11.75,11.75,0,0,0-2.37-5,13,13,0,0,0-4.33-3.46,12.35,12.35,0,0,0-5.57-1.28,12.45,12.45,0,0,0-6.1,1.54,11.68,11.68,0,0,0-4.44,4.33,12.53,12.53,0,0,0-1.66,6.55,12.14,12.14,0,0,0,1.66,6.29,12.6,12.6,0,0,0,4.48,4.52A11.67,11.67,0,0,0,15.81,124.76Z"/><path d="M56.85,127.78a14.55,14.55,0,0,1-12.91-7.53,17.27,17.27,0,0,1,0-16.19,14,14,0,0,1,5.54-5.35,16.29,16.29,0,0,1,15.74.3,13.41,13.41,0,0,1,5.53,5.73l-.6,1.65V70h3.54v57.22H70.1v-9l.75,1.65a14.57,14.57,0,0,1-5.64,5.76A16.07,16.07,0,0,1,56.85,127.78Zm.9-3.09a12.59,12.59,0,0,0,6.1-1.47,12,12,0,0,0,4.37-4,11.74,11.74,0,0,0,1.88-5.69v-3.76a11.41,11.41,0,0,0-2.33-5.12,13.38,13.38,0,0,0-4.37-3.58,12.84,12.84,0,0,0-11.82.27,11.91,11.91,0,0,0-4.44,4.36,12.4,12.4,0,0,0-1.66,6.48,12.17,12.17,0,0,0,1.66,6.29A12.57,12.57,0,0,0,51.62,123,11.68,11.68,0,0,0,57.75,124.69Z"/><path d="M99.17,127.78a15.38,15.38,0,0,1-7.65-1.92,14.17,14.17,0,0,1-5.42-5.39A17.53,17.53,0,0,1,86.22,104a14,14,0,0,1,5.72-5.35,17.78,17.78,0,0,1,8.21-1.84A14,14,0,0,1,112.57,105l-.53,1,.45-8.36h3.17v29.44h-3.54v-9.11l.75,1.36a9.1,9.1,0,0,1-1.81,3,15.76,15.76,0,0,1-3.12,2.71,16.13,16.13,0,0,1-4.07,2A15.16,15.16,0,0,1,99.17,127.78Zm.75-3a12.77,12.77,0,0,0,6-1.39,11.45,11.45,0,0,0,6.21-9.6v-4.22a11.87,11.87,0,0,0-2.37-5,13.06,13.06,0,0,0-4.33-3.46,12.81,12.81,0,0,0-11.67.26,11.78,11.78,0,0,0-4.45,4.33,12.62,12.62,0,0,0-1.65,6.55,12.23,12.23,0,0,0,1.65,6.29,12.76,12.76,0,0,0,4.48,4.52A11.73,11.73,0,0,0,99.92,124.76Z"/><path d="M145.17,127.78a15,15,0,0,1-7.9-2.23,13.68,13.68,0,0,1-5.42-5.76l.6-1.28v22.82h-3.54V97.51h3.16l.38,9.63-.68-2.18a15.75,15.75,0,0,1,5.72-5.84,15.48,15.48,0,0,1,8.21-2.29,14.57,14.57,0,0,1,7.61,2,15.06,15.06,0,0,1,5.38,5.54,15.87,15.87,0,0,1,2,8,15.3,15.3,0,0,1-2.07,8,14.74,14.74,0,0,1-5.57,5.46A15.9,15.9,0,0,1,145.17,127.78Zm-.6-2.94a12.14,12.14,0,0,0,6.29-1.66,12.68,12.68,0,0,0,4.52-4.48,12,12,0,0,0,1.69-6.29,12.32,12.32,0,0,0-1.66-6.36,12.59,12.59,0,0,0-4.4-4.48,11.84,11.84,0,0,0-6.21-1.65,12.14,12.14,0,0,0-10.39,5.57,12.56,12.56,0,0,0-2,5.8v2.4a11.57,11.57,0,0,0,1.92,5.65,12.21,12.21,0,0,0,4.36,4A12,12,0,0,0,144.57,124.84Z"/><path d="M174,84.78h3.62V98.11h9.11V101h-9.11v26.2H174V101h-6.25V98.11H174Z"/><path d="M207.59,127.78a15.37,15.37,0,0,1-7.64-1.92,14.17,14.17,0,0,1-5.42-5.39,17.57,17.57,0,0,1,.11-16.45,14.06,14.06,0,0,1,5.73-5.35,17.77,17.77,0,0,1,8.2-1.84A13.19,13.19,0,0,1,216,99.16a13.33,13.33,0,0,1,5,5.88l-.53,1,.45-8.36h3.16v29.44h-3.53v-9.11l.75,1.36a9.28,9.28,0,0,1-1.81,3,15.76,15.76,0,0,1-3.12,2.71,16.13,16.13,0,0,1-4.07,2A15.17,15.17,0,0,1,207.59,127.78Zm.76-3a12.7,12.7,0,0,0,6-1.39,11.49,11.49,0,0,0,6.22-9.6v-4.22a11.89,11.89,0,0,0-2.38-5,13,13,0,0,0-4.33-3.46,12.29,12.29,0,0,0-5.57-1.28,12.48,12.48,0,0,0-6.1,1.54,11.75,11.75,0,0,0-4.44,4.33,12.62,12.62,0,0,0-1.66,6.55,12.24,12.24,0,0,0,1.66,6.29,12.68,12.68,0,0,0,4.48,4.52A11.71,11.71,0,0,0,208.35,124.76Z"/><path d="M253.83,127.78a15.21,15.21,0,0,1-8.25-2.34,14.38,14.38,0,0,1-5.46-5.87l.76-2v9.63h-3.54V70h3.54v36.44l-.46-2a12.86,12.86,0,0,1,5.5-5.53,16.9,16.9,0,0,1,8.28-2.07,14.57,14.57,0,0,1,7.53,2,14.78,14.78,0,0,1,5.39,5.46,15.57,15.57,0,0,1,2,7.91,16.08,16.08,0,0,1-2.11,8.47,14,14,0,0,1-5.57,5.31A16.23,16.23,0,0,1,253.83,127.78Zm-.61-3.09a12.64,12.64,0,0,0,6.52-1.62,11.14,11.14,0,0,0,4.25-4.44,13.43,13.43,0,0,0,1.51-6.44A12.71,12.71,0,0,0,264,106a11.77,11.77,0,0,0-10.73-6.21,12.72,12.72,0,0,0-5.68,1.27,12.51,12.51,0,0,0-4.33,3.47,11.91,11.91,0,0,0-2.33,5v4.6a11.19,11.19,0,0,0,2,5.19,12.5,12.5,0,0,0,10.39,5.35Z"/><path d="M279.5,70H283v57.22H279.5Z"/><path d="M309.1,127.78a16,16,0,0,1-8.14-2,14.61,14.61,0,0,1-5.53-5.53,15.64,15.64,0,0,1-2-7.87,15.07,15.07,0,0,1,2.11-7.83,16,16,0,0,1,5.69-5.65,15.38,15.38,0,0,1,7.94-2.11A13.08,13.08,0,0,1,318,99.84a17.37,17.37,0,0,1,5.16,8.06l-25.76,9.94-1.05-2.56,23.57-9.19-.75,1a13.83,13.83,0,0,0-3.88-5.19,9.55,9.55,0,0,0-6.37-2.18,11.47,11.47,0,0,0-6.09,1.65,12.33,12.33,0,0,0-6,10.77,12.75,12.75,0,0,0,1.54,6.17,12.1,12.1,0,0,0,4.33,4.6,12.51,12.51,0,0,0,11,.82,15,15,0,0,0,3.95-2.33l1.81,2.56a18.13,18.13,0,0,1-4.86,2.71A15.58,15.58,0,0,1,309.1,127.78Z"/><path d="M330.86,122.81a2.39,2.39,0,0,1,1.73-.76,2.53,2.53,0,0,1,1.77.76,2.5,2.5,0,0,1,0,3.65,2.56,2.56,0,0,1-1.77.71,2.55,2.55,0,0,1-1.73-4.36Z"/><path class="cls-2" d="M595,288s-26.93-75.65-133.37-93.16c0,0-44.46-5.39-83.53,12.12,0,0-5.39-53.89-59.29-33.68,0,0-16.17-6.74-25.6-1.35s-17.52,16.17-17.52,20.21-13.47,20.21-13.47,20.21S233.92,242,246,255.45c0,0,2.7,5.39,12.13,1.35s47.16,2.69,53.89,1.34,16.17,0,24.26-4a109.92,109.92,0,0,1-47.16,10.78c-27,0-32.34,2.7-32.34,2.7s14.82,52.54,79.5,52.54c0,0,26.94,4.05,43.11-8.08,0,0,18.48,6.16,38.59,11.69h0l-8.24,15.94c-13.48,0-35,5.39-35,5.39,5.39,6.74,29.64,10.78,29.64,10.78s2.69,1.35-1.35,10.78-2.69,14.82-2.69,14.82,4,1.35,16.17-4,5.38-16.17,5.38-22.91,18.52-25.15,18.54-25.16a130.76,130.76,0,0,0,18.52,2.93c11.06.65,29.58,3.14,45.77,5.54L503,343.52c-13.24,2.49-33.43,11.77-33.43,11.77,6.54,5.63,31.12,5.12,31.12,5.12s2.9.82.67,10.84a35.18,35.18,0,0,0-.89,10.18,30.3,30.3,0,0,0-12.29,9.89C479,403.27,480.41,418,480.41,418s.71,16.17,18.28,26.71,28.12,10.55,47.1,8.44,38-21.79,38-21.79,19-22.5,24.6-42.18S619.6,321,595,288ZM341,223.79a21.56,21.56,0,1,1,21.56-21.56A21.57,21.57,0,0,1,341,223.79ZM547.9,424.36s-26.71,11.24-38-2.82,2.11-25.3,2.11-25.3,9.84-4.22,14.76,1.4.35,11.6.35,11.6-5.62,3.52-8.44,0,0-7.73,0-7.73a11.67,11.67,0,0,0-5.27,9.49c0,6.33,8.44,7.73,8.44,7.73S536,422.25,541.57,411s2.11-19,2.11-19-5.62-12.65-20.39-13.36c-1.93-.09-3.8-.14-5.61-.14,9.18-7.38,1.15-16.29,0-22.67-.58-3.08,2.31-9.37,5.56-15.22,8.09,1.28,13.46,2.18,13.46,2.18,21.79,7,27.41,33.74,27.41,33.74C571.8,411.7,547.9,424.36,547.9,424.36Z"/><circle class="cls-2" cx="346.42" cy="191.45" r="6.74"/></g></g></svg>