<svg xmlns="http://www.w3.org/2000/svg" viewBox="0 0 64.55 85"><defs><style>.cls-1{fill:#ccc;}.cls-2{fill:#603813;}.cls-3{fill:#f2f2f2;}.cls-4{fill:#8c6239;}</style></defs><title>Asset 4</title><g id="Layer_2" data-name="Layer 2"><g id="Main"><g id="Home_Icon" data-name="Home Icon"><path class="cls-1" d="M63.78,54.9c-5.06-6.24-13.67-1.09-13.67-1.09h0q.26-4.45.26-9.79H.11S-2.17,85,14,85s24.29-.17,24.29-.17,4.06.75,7.72-8.41h0S69,62.82,63.78,54.9ZM47.45,72.15A79.86,79.86,0,0,0,49.81,58c5.09-4.64,11.6-3.31,11.6.42C61.41,61.78,49.74,70.48,47.45,72.15Z"/><ellipse class="cls-2" cx="25.24" cy="44.27" rx="25.13" ry="3.54"/><path class="cls-3" d="M2.56,49.41l7.08,1s-2,23.44,3.88,30.19C13.52,80.62,4.07,80.11,2.56,49.41Z"/><path class="cls-4" d="M2.76,44.27s7.89-2.61,21.89-2.78a87.55,87.55,0,0,1,23.84,2.78,228.11,228.11,0,0,0-23.84-1.43A171.29,171.29,0,0,0,2.76,44.27Z"/><path class="cls-3" d="M28.36,0s-9.45,9.44-6.24,19.73a93.76,93.76,0,0,1,3.54,21.76s3.2-7.76,0-23.61A23,23,0,0,1,28.36,0Z"/><path class="cls-3" d="M19.48,12.82S12.64,19.65,15,27.1a67.76,67.76,0,0,1,2.57,15.74s2.31-5.62,0-17.09A16.61,16.61,0,0,1,19.48,12.82Z"/><path class="cls-3" d="M35.08,12.82s-7.18,7.18-4.75,15A71.07,71.07,0,0,1,33,44.36s2.43-5.9,0-17.95A17.49,17.49,0,0,1,35.08,12.82Z"/></g></g></g></svg>