<svg xmlns="http://www.w3.org/2000/svg" viewBox="0 0 795.05 566.22"><defs><style>.cls-1{fill:#ffd14c;}.cls-2{fill:#fff;}.cls-3,.cls-4{fill:none;stroke:#fff;}.cls-3{stroke-linejoin:round;stroke-width:1.22px;}.cls-4{stroke-miterlimit:10;stroke-width:5px;}</style></defs><title>imaginative-illustration</title><g id="Layer_2" data-name="Layer 2"><g id="Main"><circle class="cls-1" cx="511.94" cy="283.11" r="283.11"/><path d="M0,90.64a2.23,2.23,0,0,1,.83-1.77,2.69,2.69,0,0,1,1.81-.72,2.51,2.51,0,0,1,1.8.72,2.37,2.37,0,0,1,.76,1.77,2.43,2.43,0,0,1-.76,1.84,2.51,2.51,0,0,1-1.8.72,2.6,2.6,0,0,1-1.81-.76A2.32,2.32,0,0,1,0,90.64Zm.75,10.84H4.29v29.44H.75Z"/><path d="M20.63,101.48l.38,8.21-.53-.75a12.32,12.32,0,0,1,5-6.07,14,14,0,0,1,7.64-2.22,10.47,10.47,0,0,1,4.48.94,8.69,8.69,0,0,1,3.24,2.56,7.28,7.28,0,0,1,1.47,3.73l-.45.45a11.6,11.6,0,0,1,5-5.72,14.43,14.43,0,0,1,7.31-2,9.15,9.15,0,0,1,6.7,2.45,8.77,8.77,0,0,1,2.56,6.36v21.46H59.86v-20.7a7,7,0,0,0-1.65-4.49,6.48,6.48,0,0,0-4.82-2A10.25,10.25,0,0,0,48,105.25a11.89,11.89,0,0,0-4,4,11.39,11.39,0,0,0-1.7,5.57v16.11H38.7v-20.7A6.9,6.9,0,0,0,37,105.73a6.59,6.59,0,0,0-4.86-2,10.52,10.52,0,0,0-5.53,1.51,11.37,11.37,0,0,0-5.54,9.86v15.81H17.54V101.48Z"/><path d="M88.85,131.52a15.34,15.34,0,0,1-7.64-1.92,14.08,14.08,0,0,1-5.42-5.38,17.49,17.49,0,0,1,.11-16.45,13.91,13.91,0,0,1,5.72-5.35,17.81,17.81,0,0,1,8.21-1.84,14,14,0,0,1,12.42,8.2l-.52,1.06.45-8.36h3.16v29.44H101.8v-9.11l.76,1.36a9.46,9.46,0,0,1-1.81,3,16.44,16.44,0,0,1-7.19,4.67A15.17,15.17,0,0,1,88.85,131.52Zm.75-3a12.74,12.74,0,0,0,6-1.39,11.45,11.45,0,0,0,6.21-9.6V113.3a11.75,11.75,0,0,0-2.37-5,13,13,0,0,0-4.33-3.46,12.81,12.81,0,0,0-11.67.26A11.68,11.68,0,0,0,79,109.46,12.53,12.53,0,0,0,77.33,116,12.14,12.14,0,0,0,79,122.3a12.6,12.6,0,0,0,4.48,4.52A11.67,11.67,0,0,0,89.6,128.51Z"/><path d="M131.69,145.3a19.35,19.35,0,0,1-4.74-.56,15.65,15.65,0,0,1-4.44-1.92,28.5,28.5,0,0,1-4.52-3.54l2.11-2.41a19.4,19.4,0,0,0,6,4.18,14.79,14.79,0,0,0,5.42,1.09,15.42,15.42,0,0,0,7.31-1.47,9,9,0,0,0,3.91-3.91A12.83,12.83,0,0,0,144,131.3l.08-9.56.83.9a13.15,13.15,0,0,1-5.39,6.4,15.86,15.86,0,0,1-8.77,2.48,14.29,14.29,0,0,1-7.57-2.07,15.51,15.51,0,0,1-5.46-5.57,16.21,16.21,0,0,1,.08-15.85,15.09,15.09,0,0,1,5.72-5.46,16.24,16.24,0,0,1,8-2,15.16,15.16,0,0,1,7.72,2.11,12.7,12.7,0,0,1,5.31,5.57l-.45,1.65.38-8.43h3.16v29.89a14.92,14.92,0,0,1-1.62,6.82,12.29,12.29,0,0,1-5.12,5.16A18.94,18.94,0,0,1,131.69,145.3ZM119.27,116a12.14,12.14,0,0,0,1.66,6.29,12.6,12.6,0,0,0,4.48,4.52,11.94,11.94,0,0,0,6.28,1.69,12.46,12.46,0,0,0,6-1.47,12.6,12.6,0,0,0,4.44-4,10.71,10.71,0,0,0,2-5.34v-4.37a11.84,11.84,0,0,0-2.37-5,12.91,12.91,0,0,0-4.37-3.46,13.28,13.28,0,0,0-12,.3,11.75,11.75,0,0,0-4.48,4.37A12.36,12.36,0,0,0,119.27,116Z"/><path d="M160.16,90.64a2.25,2.25,0,0,1,.82-1.77,2.73,2.73,0,0,1,1.81-.72,2.53,2.53,0,0,1,1.81.72,2.36,2.36,0,0,1,.75,1.77,2.42,2.42,0,0,1-.75,1.84,2.53,2.53,0,0,1-1.81.72,2.63,2.63,0,0,1-1.81-.76A2.34,2.34,0,0,1,160.16,90.64Zm.75,10.84h3.54v29.44h-3.54Z"/><path d="M180.79,101.48l.37,9.26-.45-1.8a11.13,11.13,0,0,1,4.86-6.07,14.74,14.74,0,0,1,7.94-2.22,9.29,9.29,0,0,1,6.7,2.45,8.63,8.63,0,0,1,2.64,6.36v21.46h-3.61V110.44a7,7,0,0,0-1.81-4.74,6.74,6.74,0,0,0-5.05-2,11.18,11.18,0,0,0-9.6,5.42,11.3,11.3,0,0,0-1.54,6v15.81H177.7V101.48Z"/><path d="M228.3,131.52a15.34,15.34,0,0,1-7.64-1.92,14.08,14.08,0,0,1-5.42-5.38,17.49,17.49,0,0,1,.11-16.45,13.91,13.91,0,0,1,5.72-5.35,17.81,17.81,0,0,1,8.21-1.84,14,14,0,0,1,12.42,8.2l-.52,1.06.45-8.36h3.16v29.44h-3.54v-9.11l.75,1.36a9.24,9.24,0,0,1-1.8,3,16.44,16.44,0,0,1-7.19,4.67A15.17,15.17,0,0,1,228.3,131.52Zm.75-3a12.74,12.74,0,0,0,6-1.39,11.45,11.45,0,0,0,6.21-9.6V113.3a11.75,11.75,0,0,0-2.37-5,13,13,0,0,0-4.33-3.46,12.81,12.81,0,0,0-11.67.26,11.68,11.68,0,0,0-4.44,4.33,12.53,12.53,0,0,0-1.66,6.55,12.14,12.14,0,0,0,1.66,6.29,12.6,12.6,0,0,0,4.48,4.52A11.67,11.67,0,0,0,229.05,128.51Z"/><path d="M261,88.53h3.61v13.33h9.11v2.86h-9.11v26.2H261v-26.2h-6.25v-2.86H261Z"/><path d="M281.61,90.64a2.23,2.23,0,0,1,.83-1.77,2.69,2.69,0,0,1,1.81-.72,2.51,2.51,0,0,1,1.8.72,2.37,2.37,0,0,1,.76,1.77,2.43,2.43,0,0,1-.76,1.84,2.51,2.51,0,0,1-1.8.72,2.6,2.6,0,0,1-1.81-.76A2.32,2.32,0,0,1,281.61,90.64Zm.75,10.84h3.54v29.44h-3.54Z"/><path d="M309.47,132.05l-14.91-30.57h4.14L311,128.21l-2.19-.07,11.82-26.66h3.92l-14.61,30.57Z"/><path d="M345.61,131.52a16,16,0,0,1-8.13-2A14.61,14.61,0,0,1,332,124a15.64,15.64,0,0,1-2-7.87,15,15,0,0,1,2.11-7.83,15.93,15.93,0,0,1,5.68-5.65,15.45,15.45,0,0,1,7.95-2.11,13.08,13.08,0,0,1,8.85,3.09,17.28,17.28,0,0,1,5.15,8.06l-25.75,9.94L332.89,119l23.57-9.18-.76,1a13.7,13.7,0,0,0-3.87-5.19,9.57,9.57,0,0,0-6.37-2.19,11.51,11.51,0,0,0-6.1,1.66,12.53,12.53,0,0,0-4.33,4.44,12.37,12.37,0,0,0-1.62,6.33,12.76,12.76,0,0,0,1.55,6.17,12.1,12.1,0,0,0,4.33,4.6,11.89,11.89,0,0,0,6.4,1.73,12.05,12.05,0,0,0,4.63-.91,15,15,0,0,0,3.95-2.33l1.81,2.56a18.73,18.73,0,0,1-4.86,2.71A15.58,15.58,0,0,1,345.61,131.52Z"/><path d="M367.37,126.56a2.38,2.38,0,0,1,1.74-.76,2.49,2.49,0,0,1,1.77.76,2.5,2.5,0,0,1,0,3.65,2.56,2.56,0,0,1-1.77.71,2.55,2.55,0,0,1-1.74-4.36Z"/><polygon class="cls-2" points="530.01 445.91 505.47 452.14 482.05 276.53 506.58 270.3 530.01 445.91"/><polygon class="cls-3" points="482.12 276.24 488.36 228.91 506.55 270.5 482.12 276.24"/><polygon class="cls-2" points="488.36 228.91 494.08 242.37 486.31 244.49 488.36 228.91"/><rect class="cls-2" x="458.18" y="268.04" width="19.36" height="178.56" transform="translate(-35.2 51.54) rotate(-6.08)"/><path class="cls-2" d="M448.78,269.57s-19.16-17.43,4.14-56c0,0,27.92,25.15,15.11,53.92,0,0,.43-23.12-6.8-36.78,0,0,6.45,27.44,3.56,37.13l-6.38.67s2.54-27-3.08-45.82c0,0,4.83,40.59.47,46.1l-2.42.26s-6.27-15.2-1.9-35.13c0,0-6.8,10.09-.53,35.39Z"/><rect class="cls-4" x="413.71" y="208.24" width="50.92" height="215.85" transform="translate(980.15 329.12) rotate(145.62)"/><line class="cls-4" x1="363.88" y1="250.9" x2="374.63" y2="242.3"/><line class="cls-4" x1="375.35" y1="268.11" x2="386.11" y2="259.51"/><line class="cls-4" x1="387.54" y1="286.76" x2="398.3" y2="278.15"/><line class="cls-4" x1="401.16" y1="303.97" x2="411.92" y2="295.37"/><line class="cls-4" x1="412.64" y1="321.18" x2="423.4" y2="312.58"/><line class="cls-4" x1="424.83" y1="339.83" x2="435.59" y2="331.22"/><line class="cls-4" x1="435.59" y1="357.75" x2="446.34" y2="349.15"/><line class="cls-4" x1="447.06" y1="373.53" x2="457.82" y2="364.93"/><line class="cls-4" x1="457.82" y1="390.74" x2="468.57" y2="382.14"/><line class="cls-4" x1="471.44" y1="407.95" x2="482.2" y2="399.35"/><polygon class="cls-2" points="509.44 446.22 533.97 452.45 557.39 276.84 532.86 270.61 509.44 446.22"/><polygon class="cls-3" points="557.32 276.55 551.08 229.22 532.89 270.81 557.32 276.55"/><polygon class="cls-2" points="551.08 229.22 545.36 242.68 553.13 244.8 551.08 229.22"/><path class="cls-4" d="M430.54,346.85l127.64,68.34,92.07-172Zm122,29.95-60.28-32.27L596,295.6Z"/><line class="cls-4" x1="637.14" y1="267.7" x2="625.92" y2="261.68"/><line class="cls-4" x1="630.48" y1="280.15" x2="619.25" y2="274.14"/><line class="cls-4" x1="625.12" y1="290.15" x2="613.89" y2="284.14"/><line class="cls-4" x1="618.45" y1="302.61" x2="607.23" y2="296.6"/><line class="cls-4" x1="613.1" y1="312.61" x2="601.87" y2="306.6"/><line class="cls-4" x1="606.43" y1="325.06" x2="595.2" y2="319.05"/><line class="cls-4" x1="601.08" y1="335.07" x2="589.85" y2="329.05"/><line class="cls-4" x1="594.41" y1="347.52" x2="583.18" y2="341.51"/><line class="cls-4" x1="587.77" y1="359.93" x2="576.54" y2="353.92"/><line class="cls-4" x1="582.41" y1="369.93" x2="571.18" y2="363.92"/><line class="cls-4" x1="575.74" y1="382.39" x2="564.52" y2="376.38"/><line class="cls-4" x1="570.37" y1="392.43" x2="559.14" y2="386.42"/><line class="cls-4" x1="565.01" y1="402.44" x2="553.78" y2="396.43"/><path class="cls-2" d="M407.76,340.83H625.19s.93,8.4-26.13,57.85c0,0-15.87,33.6,1.86,69.06L489,506.93s-8.87-50.86-35.93-48.06-37.32-4.67-37.32-4.67-7.46-8.59-7-22.86c.46-14.46-7.93-43.39-7.93-43.39l-11.2-4.66s-7.47-4.67.93-16.8S407.76,340.83,407.76,340.83Z"/></g></g></svg>