<svg xmlns="http://www.w3.org/2000/svg" viewBox="0 0 91.81 38.19"><title>lettering-icon</title><g id="Layer_2" data-name="Layer 2"><g id="Main"><path d="M24.62,18.53a8.08,8.08,0,0,1,3,.39,1.4,1.4,0,0,1,.91,1.41q0,1.4-4.49,2.84.11,3.93.1,7.51a18.87,18.87,0,0,1-.57,5.37c-.37,1.19-1,1.78-1.8,1.78a2.15,2.15,0,0,1-1.94-1.26,13.52,13.52,0,0,1-1.13-4.16c-.3-1.93-.6-4.47-.91-7.64-3.51.79-6,1.43-7.58,1.91q-4,11.15-5.37,11.15a5.14,5.14,0,0,1-2.86-1.45,4,4,0,0,1-1.78-3c0-.58.67-2.41,2-5.47A4.9,4.9,0,0,1,.65,26.29a3.81,3.81,0,0,1-.65-2C0,23.12,1.7,22,5.11,21c.27-.68.56-1.47.85-2.34s1-2.94,2.22-6.17S10.3,6.55,11,4.39q.47-1.56,3.23-2.89A10.82,10.82,0,0,1,18.53.15c1.2,0,2.28,1.67,3.22,5a67.38,67.38,0,0,1,2,13.37Zm-11.92.88c1-.14,2.52-.31,4.49-.52-.11-1-.27-2.7-.49-5.11s-.39-4.15-.49-5.21Q15.33,11.45,12.7,19.41Z"/><path d="M60,25.13q0,3.21-3.53,6.3a26.87,26.87,0,0,1-8.57,4.93,28.06,28.06,0,0,1-9.57,1.83q-2,0-4.6-2.4c-1.75-1.6-2.63-2.91-2.63-3.95a2.25,2.25,0,0,1,.39-1.39,1.13,1.13,0,0,1,.9-.52,7.78,7.78,0,0,1,2.3.86,7.15,7.15,0,0,0,2.68.85,10.52,10.52,0,0,0,1.78-.16,7.78,7.78,0,0,1-2.58-1.8A3.65,3.65,0,0,1,35.3,27.2q0-.52,1.7-7.51a56.67,56.67,0,0,0,1.81-12A9.71,9.71,0,0,1,37.13,5.6a4.33,4.33,0,0,1-.75-1.88c0-1,.76-1.74,2.28-2.33A15.94,15.94,0,0,1,44.33.52q7.23,0,11.59,1.91t4.36,6.09a8.57,8.57,0,0,1-2.22,5.36,23.31,23.31,0,0,1-5.83,5l.52.15a14.25,14.25,0,0,1,5.18,2.46A4.58,4.58,0,0,1,60,25.13Zm-6.5-.2c0-.69-1-1.28-3-1.78a20.88,20.88,0,0,0-4.93-.75c-.72,0-1.49-.53-2.32-1.6Q41,30.34,40.51,31.28a45,45,0,0,0,8.67-2.84Q53.52,26.52,53.52,24.93ZM50.89,7.12a55.57,55.57,0,0,0-7.54,1.14c1.24,1.37,1.86,2.52,1.86,3.43a25.91,25.91,0,0,1-.88,5,30.42,30.42,0,0,1,2.94-1.8c1.41-.8,2.3-1.32,2.66-1.58s.85-.64,1.47-1.16A4.06,4.06,0,0,0,53.16,9C53.16,7.73,52.4,7.12,50.89,7.12Z"/><path d="M85.72,0q1.45,0,3.15,2.55a8.23,8.23,0,0,1,1.7,4.21c0,1.1-.22,1.65-.67,1.65a9.42,9.42,0,0,1-1.31-.2A8.67,8.67,0,0,0,86.86,8q-2.58,0-6,3.3a30.8,30.8,0,0,0-5.91,7.9,17.55,17.55,0,0,0-2.45,8,4.27,4.27,0,0,0,.52,2.4,2.08,2.08,0,0,0,1.85.74,25.45,25.45,0,0,0,7.23-1.08,44.27,44.27,0,0,0,6-2.19,14,14,0,0,1,2.71-1.11c.22,0,.44.2.67.59a2.89,2.89,0,0,1,.33,1.42q0,1.75-2.78,4.16a26.26,26.26,0,0,1-6.74,4.1,18.34,18.34,0,0,1-7.15,1.7c-2.13,0-4.38-1.29-6.73-3.87s-3.54-5-3.54-7.38q0-4.9,3.15-11.17A37.71,37.71,0,0,1,76.15,4.59Q81.13,0,85.72,0Z"/></g></g></svg>