<svg xmlns="http://www.w3.org/2000/svg" viewBox="0 0 703.07 1102.54"><defs><style>.cls-1{fill:#c5f7ff;}.cls-2{fill:none;stroke:#fff;stroke-miterlimit:10;stroke-width:4px;}.cls-3{fill:#534741;}.cls-4{fill:#b3b3b3;}.cls-5{fill:#583100;}.cls-6{fill:#8c6239;}</style></defs><title>Asset 12</title><g id="Layer_2" data-name="Layer 2"><g id="Lettering"><path class="cls-1" d="M287.11,139.43,0,645.69,375.78,858.8ZM241.45,359.8l41.88,339.7L105.88,598.86Z"/><line class="cls-2" x1="246.24" y1="211.5" x2="279.29" y2="230.24"/><line class="cls-2" x1="225.44" y1="248.16" x2="258.5" y2="266.91"/><line class="cls-2" x1="208.74" y1="277.61" x2="241.8" y2="296.35"/><line class="cls-2" x1="187.95" y1="314.27" x2="221.01" y2="333.02"/><line class="cls-2" x1="171.25" y1="343.71" x2="204.31" y2="362.46"/><line class="cls-2" x1="150.46" y1="380.38" x2="183.51" y2="399.13"/><line class="cls-2" x1="133.76" y1="409.82" x2="166.82" y2="428.57"/><line class="cls-2" x1="112.97" y1="446.49" x2="146.02" y2="465.24"/><line class="cls-2" x1="92.25" y1="483.02" x2="125.3" y2="501.77"/><line class="cls-2" x1="75.55" y1="512.47" x2="108.61" y2="531.21"/><line class="cls-2" x1="54.76" y1="549.13" x2="87.81" y2="567.88"/><line class="cls-2" x1="37.98" y1="578.71" x2="71.04" y2="597.45"/><line class="cls-2" x1="21.29" y1="608.15" x2="54.34" y2="626.9"/><path class="cls-3" d="M703.07,1091.9S407.63,583.79,398.91,565,254.14,320,223.63,280.51l-23.08,13.64S264.06,421.9,365.18,584.92s320.14,517.47,320.14,517.47S699.8,1104.61,703.07,1091.9Z"/><polygon class="cls-4" points="200.55 294.14 223.63 280.51 115.81 114.26 105.16 120.55 200.55 294.14"/><path class="cls-5" d="M105.06,120.61l10.66-6.3L57.78,0S40.1-1.49,32.92,14.73Z"/><polygon class="cls-6" points="107.59 119.19 38.76 16.07 109.25 118.06 107.59 119.19"/><polygon class="cls-6" points="111.47 116.75 56.13 5.8 113.25 115.84 111.47 116.75"/><polygon class="cls-6" points="109.53 117.98 45.08 8.74 111.25 116.95 109.53 117.98"/></g></g></svg>