<svg xmlns="http://www.w3.org/2000/svg" viewBox="0 0 692.21 561.96"><defs><style>.cls-1{fill:#ffd14c;}.cls-2{fill:#fff;}.cls-3,.cls-4,.cls-5,.cls-6,.cls-7{fill:none;stroke:#fff;stroke-miterlimit:10;stroke-width:5px;}.cls-4{stroke-dasharray:7.93 7.93;}.cls-5{stroke-dasharray:8.9 8.9;}.cls-6{stroke-dasharray:9.15 9.15;}.cls-7{stroke-dasharray:7.79 7.79;}</style></defs><title>organized-illustration</title><g id="Layer_2" data-name="Layer 2"><g id="Main"><circle class="cls-1" cx="411.23" cy="280.98" r="280.98"/><path d="M0,119.62a15.32,15.32,0,0,1,7.72-13.44,15.69,15.69,0,0,1,8-2.07,15.64,15.64,0,0,1,8,2.07,15.17,15.17,0,0,1,5.58,5.61,16.12,16.12,0,0,1,0,15.66,15.1,15.1,0,0,1-5.61,5.61,15.74,15.74,0,0,1-8,2.07,16.14,16.14,0,0,1-8.06-2,14.93,14.93,0,0,1-5.61-5.49A15.48,15.48,0,0,1,0,119.62Zm3.54.07A12.41,12.41,0,0,0,5.16,126a12.25,12.25,0,0,0,4.36,4.48,11.64,11.64,0,0,0,6.14,1.66,11.61,11.61,0,0,0,6.14-1.66A12.27,12.27,0,0,0,26.17,126a13,13,0,0,0,0-12.57,12.54,12.54,0,0,0-4.37-4.52,11.46,11.46,0,0,0-6.14-1.69A11.2,11.2,0,0,0,9.45,109a12.77,12.77,0,0,0-4.33,4.64A12.43,12.43,0,0,0,3.54,119.69Z"/><path d="M44.88,105.09l.37,9L44.8,113a11.73,11.73,0,0,1,3.09-4.67,15.44,15.44,0,0,1,4.71-3,13.32,13.32,0,0,1,5-1l-.15,3.46a12.53,12.53,0,0,0-6.14,1.51,11.76,11.76,0,0,0-4.36,4,10.27,10.27,0,0,0-1.62,5.68v15.59H41.79V105.09Z"/><path d="M79.29,148.91a19.87,19.87,0,0,1-4.75-.56,15.9,15.9,0,0,1-4.44-1.92,30.73,30.73,0,0,1-4.52-3.54l2.11-2.41a19.6,19.6,0,0,0,6,4.18,14.92,14.92,0,0,0,5.42,1.09,15.37,15.37,0,0,0,7.3-1.47,9,9,0,0,0,3.92-3.92,13,13,0,0,0,1.28-5.46l.07-9.56.83.9a13,13,0,0,1-5.38,6.4,15.9,15.9,0,0,1-8.78,2.49,14.32,14.32,0,0,1-7.56-2.07,15.43,15.43,0,0,1-5.46-5.57,15.32,15.32,0,0,1,5.8-21.31,16.24,16.24,0,0,1,8-2,15.28,15.28,0,0,1,7.72,2.11,12.81,12.81,0,0,1,5.31,5.57l-.46,1.66.38-8.43h3.16V135a14.85,14.85,0,0,1-1.62,6.81A12.12,12.12,0,0,1,88.51,147,18.78,18.78,0,0,1,79.29,148.91ZM66.86,119.62a12.27,12.27,0,0,0,1.66,6.29A12.65,12.65,0,0,0,73,130.42a12,12,0,0,0,6.29,1.7,12.39,12.39,0,0,0,6-1.47,12.83,12.83,0,0,0,4.45-4,10.73,10.73,0,0,0,1.95-5.35V117a11.69,11.69,0,0,0-2.37-5A12.84,12.84,0,0,0,85,108.47a13.32,13.32,0,0,0-12,.31,11.87,11.87,0,0,0-4.48,4.36A12.49,12.49,0,0,0,66.86,119.62Z"/><path d="M120.7,135.13a15.34,15.34,0,0,1-7.64-1.92,14.08,14.08,0,0,1-5.42-5.38,15.88,15.88,0,0,1-2-8.06,16.07,16.07,0,0,1,2.11-8.4,14,14,0,0,1,5.72-5.34,17.82,17.82,0,0,1,8.21-1.85,14,14,0,0,1,12.42,8.21l-.52,1,.45-8.35h3.16v29.44h-3.54v-9.11l.76,1.35a9.39,9.39,0,0,1-1.81,3,16.46,16.46,0,0,1-3.13,2.71,16,16,0,0,1-4.06,1.95A15.17,15.17,0,0,1,120.7,135.13Zm.76-3a12.74,12.74,0,0,0,6-1.4,11.46,11.46,0,0,0,4.33-3.87,11.65,11.65,0,0,0,1.88-5.73v-4.21a11.64,11.64,0,0,0-2.37-5,13,13,0,0,0-4.33-3.47,12.85,12.85,0,0,0-11.67.27,11.61,11.61,0,0,0-4.44,4.33,12.53,12.53,0,0,0-1.66,6.55,12.17,12.17,0,0,0,1.66,6.29,12.65,12.65,0,0,0,4.48,4.51A11.72,11.72,0,0,0,121.46,132.12Z"/><path d="M153.53,105.09l.38,9.26-.45-1.81a11.09,11.09,0,0,1,4.85-6.06,14.8,14.8,0,0,1,7.95-2.22,9.3,9.3,0,0,1,6.7,2.44,8.7,8.7,0,0,1,2.63,6.37v21.46H172V114.05a7,7,0,0,0-1.81-4.75,6.73,6.73,0,0,0-5-2,11,11,0,0,0-5.5,1.43,10.9,10.9,0,0,0-4.1,4,11.26,11.26,0,0,0-1.55,5.94v15.82h-3.54V105.09Z"/><path d="M188.09,94.24a2.26,2.26,0,0,1,.83-1.77,2.73,2.73,0,0,1,1.81-.71,2.58,2.58,0,0,1,1.81.71,2.36,2.36,0,0,1,.75,1.77,2.44,2.44,0,0,1-.75,1.85,2.54,2.54,0,0,1-1.81.71,2.63,2.63,0,0,1-1.81-.75A2.36,2.36,0,0,1,188.09,94.24Zm.76,10.85h3.53v29.44h-3.53Z"/><path d="M206.39,108a5.29,5.29,0,0,1-3.24-.94,3.91,3.91,0,0,1-1.28-3.35V102.3h2.79v.9a1.65,1.65,0,0,0,.64,1.4,3.15,3.15,0,0,0,1.92.49h19.05l-19.13,27.18-.75-.75H226v3H201.65L221,107l.75,1Z"/><path d="M248.71,135.13a16.1,16.1,0,0,1-8.14-2,14.64,14.64,0,0,1-5.53-5.54,15.58,15.58,0,0,1-2-7.87,15.07,15.07,0,0,1,2.11-7.83,16,16,0,0,1,5.69-5.65,15.38,15.38,0,0,1,7.94-2.1,13.08,13.08,0,0,1,8.85,3.09,17.34,17.34,0,0,1,5.16,8L237,125.19,236,122.63l23.57-9.19-.75,1.06a13.86,13.86,0,0,0-3.88-5.2,9.59,9.59,0,0,0-6.36-2.18,11.4,11.4,0,0,0-6.1,1.66,12.33,12.33,0,0,0-6,10.76,12.81,12.81,0,0,0,1.54,6.18,12,12,0,0,0,4.33,4.59,11.83,11.83,0,0,0,6.4,1.73,12.2,12.2,0,0,0,4.63-.9,14.79,14.79,0,0,0,4-2.34l1.81,2.56a18.53,18.53,0,0,1-4.85,2.72A15.66,15.66,0,0,1,248.71,135.13Z"/><path d="M284.47,135.13a14.55,14.55,0,0,1-12.91-7.53,17.23,17.23,0,0,1,0-16.19,14,14,0,0,1,5.53-5.35,16.12,16.12,0,0,1,7.72-1.88,15.85,15.85,0,0,1,8,2.19,13.28,13.28,0,0,1,5.53,5.72l-.6,1.66V77.3h3.54v57.23h-3.61v-9l.75,1.66a14.66,14.66,0,0,1-5.65,5.76A16.16,16.16,0,0,1,284.47,135.13Zm.91-3.09a12.59,12.59,0,0,0,6.1-1.47,11.83,11.83,0,0,0,6.25-9.67v-3.77a11.47,11.47,0,0,0-2.34-5.12,13.37,13.37,0,0,0-4.37-3.57,12.11,12.11,0,0,0-5.64-1.32,12.36,12.36,0,0,0-6.18,1.58,11.86,11.86,0,0,0-4.44,4.37,12.36,12.36,0,0,0-1.66,6.47,12.14,12.14,0,0,0,1.66,6.29,12.68,12.68,0,0,0,4.48,4.52A11.71,11.71,0,0,0,285.38,132Z"/><path d="M312.63,130.16a2.4,2.4,0,0,1,1.74-.75,2.52,2.52,0,0,1,1.77.75,2.44,2.44,0,0,1,.79,1.81,2.38,2.38,0,0,1-.79,1.84,2.57,2.57,0,0,1-1.77.72,2.45,2.45,0,0,1-1.74-.72,2.42,2.42,0,0,1-.75-1.84A2.48,2.48,0,0,1,312.63,130.16Z"/><polygon class="cls-2" points="375.4 134.25 375.4 197.35 472.58 197.35 472.58 134.25 423.99 134.25 411.71 121.95 375.4 121.95 375.4 134.25"/><polygon class="cls-2" points="498.88 270.24 498.88 333.35 596.06 333.35 596.06 270.24 547.47 270.24 535.19 257.94 498.88 257.94 498.88 270.24"/><polygon class="cls-2" points="375.4 270.59 375.4 333.69 472.58 333.69 472.58 270.59 423.99 270.59 411.71 258.29 375.4 258.29 375.4 270.59"/><polygon class="cls-2" points="251.92 270.24 251.92 333.35 349.11 333.35 349.11 270.24 300.51 270.24 288.23 257.94 251.92 257.94 251.92 270.24"/><polygon class="cls-2" points="498.88 399.63 498.88 462.74 596.06 462.74 596.06 399.63 547.47 399.63 535.19 387.33 498.88 387.33 498.88 399.63"/><line class="cls-3" x1="366.85" y1="202.55" x2="363.86" y2="205.47"/><line class="cls-4" x1="358.18" y1="211" x2="315.63" y2="252.52"/><line class="cls-3" x1="312.79" y1="255.29" x2="309.8" y2="258.2"/><line class="cls-3" x1="428.76" y1="202.55" x2="428.76" y2="206.73"/><line class="cls-5" x1="428.76" y1="215.63" x2="428.76" y2="246.8"/><line class="cls-3" x1="428.76" y1="251.25" x2="428.76" y2="255.42"/><line class="cls-3" x1="476.06" y1="202.55" x2="479.45" y2="204.98"/><line class="cls-6" x1="486.89" y1="210.32" x2="542.69" y2="250.32"/><line class="cls-3" x1="546.41" y1="252.99" x2="549.8" y2="255.42"/><line class="cls-3" x1="553.28" y1="340.29" x2="553.28" y2="344.46"/><line class="cls-7" x1="553.28" y1="352.26" x2="553.28" y2="379.52"/><line class="cls-3" x1="553.28" y1="383.42" x2="553.28" y2="387.59"/></g></g></svg>