<svg xmlns="http://www.w3.org/2000/svg" viewBox="0 0 570.07 104.4"><defs><style>.cls-1{fill:none;stroke:#237d26;stroke-miterlimit:10;stroke-width:1.49px;}.cls-2{fill:#237d26;}</style></defs><title>personal-logo</title><g id="Layer_2" data-name="Layer 2"><g id="Main"><path class="cls-1" d="M257.36,73.75S245,52,247,21.09"/><path class="cls-1" d="M248.38,46.16s1.3-8.22,4.85-11.82"/><path class="cls-1" d="M252.47,62.19s.16-6.56,3.43-8.39"/><path class="cls-1" d="M238.75,40.48s4.24,8.16,10.87,11.78"/><path class="cls-2" d="M247,21.48s2.85,3,6.3-2.54-2.76-11.36-2.76-11.36S244.8,3.83,243.28,0c0,0,0,3.34-3.07,8.24a10.85,10.85,0,0,0-.61,9.92S240.69,24,247,21.48Z"/><path class="cls-2" d="M253.23,34.34s.93,4.7,6.45,4.3,5.08-11.51,5.08-11.51.79-3.91,2.21-5.19a18.29,18.29,0,0,1-7.79,2.19c-4.15.08-8.22,2.52-8.58,5.69S250.83,34.81,253.23,34.34Z"/><path class="cls-2" d="M238.75,40.48s5.86-.89,3.83-4.47-1.69-3.93-8-5.65a8,8,0,0,1-4.09-3.15,19.67,19.67,0,0,1-.76,8.2c-1.37,3.65,2.49,7.09,3.59,7.07S237.59,43.28,238.75,40.48Z"/><path class="cls-2" d="M255.9,53.8s-5.3-1.1-2.4-5.13c0,0,1.48-2.7,7.13-2.74a6.72,6.72,0,0,0,4.11-2.21s-2.43,2.77-2.49,8.3c0,0-1,6.35-5.22,4.53C257,56.55,256,56.22,255.9,53.8Z"/><path d="M0,56.28V52.82a6.2,6.2,0,0,0,3.91-1.44,9.44,9.44,0,0,0,2.42-3.31,15.25,15.25,0,0,0,1.19-4.3,35.69,35.69,0,0,0,.29-4.31V22A23.08,23.08,0,0,1,8.61,15a7.4,7.4,0,0,1,2-3.41,5.11,5.11,0,0,1,2.87-1.19c1.09-.09,2.23-.14,3.41-.14h4.26v2.77H15.73a4,4,0,0,0-4.11,2.41c-.69,1.62-1,4.46-1,8.54V38.32A39,39,0,0,1,10,45.47a17.93,17.93,0,0,1-1.43,4.59,8.62,8.62,0,0,1-2.08,2.76A15,15,0,0,1,4.06,54.5a13.64,13.64,0,0,1,2.47,1.73,9,9,0,0,1,2.08,2.86A18.88,18.88,0,0,1,10,63.68a37.45,37.45,0,0,1,.54,7V85.09q0,6,1,8.44a4,4,0,0,0,4.11,2.41h5.44v2.77H16.91q-2,0-3.66-.15a4.17,4.17,0,0,1-2.86-1.48,9.77,9.77,0,0,1-1.88-4.3,39.8,39.8,0,0,1-.7-8.61V69.63a35.67,35.67,0,0,0-.29-4.3A15.25,15.25,0,0,0,6.33,61a9.48,9.48,0,0,0-2.42-3.32A6.19,6.19,0,0,0,0,56.28Z"/><path d="M27.77,68.79A15.32,15.32,0,0,1,29,62.65a16.29,16.29,0,0,1,3.4-5,16,16,0,0,1,5-3.42,15.52,15.52,0,0,1,6.23-1.26,14.24,14.24,0,0,1,4.45.69,16.77,16.77,0,0,1,3.79,1.79,12.63,12.63,0,0,1,2.88,2.52,10.92,10.92,0,0,1,1.73,2.81c0-1.19.05-2.39.13-3.58s.16-2.38.22-3.58h2.91V80.82h6v3.25H56.55V80.82c0-.65,0-1.29,0-1.91s0-1.23,0-1.83a10.73,10.73,0,0,1-1.74,2.77,12.64,12.64,0,0,1-2.83,2.43A15.19,15.19,0,0,1,48.27,84a16.18,16.18,0,0,1-10.8-.61,16.37,16.37,0,0,1-5-3.37A15.87,15.87,0,0,1,29,75,15.57,15.57,0,0,1,27.77,68.79Zm3.25,0a12.31,12.31,0,0,0,1,4.89,12.9,12.9,0,0,0,2.64,4,12,12,0,0,0,4,2.69,12.56,12.56,0,0,0,5,1,12.3,12.3,0,0,0,5-1,12.66,12.66,0,0,0,4-2.69,12.5,12.5,0,0,0,2.68-4,12.31,12.31,0,0,0,1-4.89,12.66,12.66,0,0,0-1-4.94,12.41,12.41,0,0,0-2.68-4,12.69,12.69,0,0,0-4-2.7,12.47,12.47,0,0,0-5-1,12.73,12.73,0,0,0-5,1,12,12,0,0,0-4,2.7,12.81,12.81,0,0,0-2.64,4A12.66,12.66,0,0,0,31,68.83Z"/><path d="M71.51,80.82h6V26.35H71.76V23.09h9V80.82h6.35v3.25H71.51Z"/><path d="M92.9,68.79a15.15,15.15,0,0,1,1.25-6.14,16.29,16.29,0,0,1,3.4-5,15.87,15.87,0,0,1,5-3.42,15.47,15.47,0,0,1,6.22-1.26,14.15,14.15,0,0,1,4.45.69,16.85,16.85,0,0,1,3.8,1.79,12.57,12.57,0,0,1,2.87,2.52,11.26,11.26,0,0,1,1.74,2.81c0-1.19,0-2.39.13-3.58s.15-2.38.21-3.58h2.91V80.82h6v3.25h-9.27V80.82c0-.65,0-1.29,0-1.91s0-1.23,0-1.83A10.73,10.73,0,0,1,120,79.85a12.21,12.21,0,0,1-2.83,2.43,14.87,14.87,0,0,1-3.8,1.71,16.15,16.15,0,0,1-10.79-.61,16.25,16.25,0,0,1-5-3.37,15.87,15.87,0,0,1-3.4-5A15.4,15.4,0,0,1,92.9,68.79Zm3.25,0a12.14,12.14,0,0,0,1,4.89,12.9,12.9,0,0,0,2.64,4,12,12,0,0,0,4,2.69,12.6,12.6,0,0,0,5,1,12.3,12.3,0,0,0,5-1,12.51,12.51,0,0,0,6.67-6.69,12.3,12.3,0,0,0,1-4.89,12.55,12.55,0,0,0-7.64-11.67,12.47,12.47,0,0,0-5-1,12.77,12.77,0,0,0-5,1,12,12,0,0,0-4,2.7,12.81,12.81,0,0,0-2.64,4A12.48,12.48,0,0,0,96.15,68.83Z"/><path d="M136.64,80.82h6.26v-24h-6.26V53.58h9.51V80.82h6v3.25H136.64Zm5.2-38a2.5,2.5,0,0,1,.82-1.91,2.6,2.6,0,0,1,1.87-.77,2.68,2.68,0,0,1,0,5.36,2.6,2.6,0,0,1-1.87-.77A2.5,2.5,0,0,1,141.84,42.77Z"/><path d="M181.11,80.82h6.35V62.87a7.29,7.29,0,0,0-1.94-4.56,7.12,7.12,0,0,0-5.23-2.12,13.94,13.94,0,0,0-8.84,3.18,10.82,10.82,0,0,0-2.8,3.51,9.72,9.72,0,0,0-1,4.48V80.82h6v3.25H158V80.82h6.35v-24h-5.86V53.58h8.54l.08,2.85c.06.92.11,1.76.16,2.52s.08,1.6.08,2.52a13.59,13.59,0,0,1,5.27-6.18,14.73,14.73,0,0,1,8.2-2.36,9.77,9.77,0,0,1,7.09,2.52A9.31,9.31,0,0,1,190.71,62V80.82h5.93v3.25H181.11Z"/><path d="M202.34,68.79a15.15,15.15,0,0,1,1.25-6.14,16.26,16.26,0,0,1,3.39-5A16,16,0,0,1,212,54.19a15.47,15.47,0,0,1,6.22-1.26,14.15,14.15,0,0,1,4.45.69,16.85,16.85,0,0,1,3.8,1.79,12.57,12.57,0,0,1,2.87,2.52,11.26,11.26,0,0,1,1.74,2.81c0-1.19,0-2.39.13-3.58s.15-2.38.21-3.58h2.91V80.82h6v3.25h-9.27V80.82c0-.65,0-1.29,0-1.91s0-1.23,0-1.83a10.73,10.73,0,0,1-1.74,2.77,12.21,12.21,0,0,1-2.83,2.43,14.87,14.87,0,0,1-3.8,1.71A16.15,16.15,0,0,1,212,83.38,16.41,16.41,0,0,1,207,80a15.85,15.85,0,0,1-3.39-5A15.4,15.4,0,0,1,202.34,68.79Zm3.25,0a12.3,12.3,0,0,0,1,4.89,12.75,12.75,0,0,0,2.65,4,12,12,0,0,0,4,2.69,12.56,12.56,0,0,0,5,1,12.3,12.3,0,0,0,5-1,12.6,12.6,0,0,0,6.67-6.69,12.3,12.3,0,0,0,1-4.89,12.65,12.65,0,0,0-1-4.94,12.41,12.41,0,0,0-11.63-7.7,12.73,12.73,0,0,0-5,1,12,12,0,0,0-4,2.7,12.79,12.79,0,0,0-3.62,9Z"/><path d="M300.39,64.32l-12.6,5-12.6,5a11.66,11.66,0,0,0,4.39,5.1,12.2,12.2,0,0,0,6.83,2,11.92,11.92,0,0,0,4.71-.92,11.31,11.31,0,0,0,3.82-2.58c.38.44.74.86,1.06,1.26s.68.83,1.06,1.26a16.18,16.18,0,0,1-4.8,3.09,14.81,14.81,0,0,1-5.85,1.14,15.33,15.33,0,0,1-6.22-1.26,16.44,16.44,0,0,1-5-3.37,15.76,15.76,0,0,1-3.42-5,15.88,15.88,0,0,1,0-12.4,15.61,15.61,0,0,1,3.42-5,16.46,16.46,0,0,1,5-3.38,15.33,15.33,0,0,1,6.22-1.26,12.65,12.65,0,0,1,4.63.86,14.83,14.83,0,0,1,4,2.35,16.46,16.46,0,0,1,5.32,8.18Zm-14-8.13a11.92,11.92,0,0,0-5.49,1.25,12.88,12.88,0,0,0-4.19,3.31,12.08,12.08,0,0,0-2.4,4.77,12.32,12.32,0,0,0-.12,5.54q5.44-2.19,10.9-4.35t11-4.35a11.58,11.58,0,0,0-4-4.45A10.09,10.09,0,0,0,286.41,56.19Z"/><path d="M306.33,80.82h6V26.35h-5.77V23.09h9V80.82h6.34v3.25H306.33Z"/><path d="M356.49,80.82c0-.65,0-1.29,0-1.91s0-1.23,0-1.83a10.22,10.22,0,0,1-1.74,2.77A12.37,12.37,0,0,1,352,82.28,15.1,15.1,0,0,1,348.2,84a16.15,16.15,0,0,1-10.79-.61A16.37,16.37,0,0,1,332.36,80a15.87,15.87,0,0,1-3.4-5,15.57,15.57,0,0,1-1.25-6.22A15.32,15.32,0,0,1,329,62.65a16.29,16.29,0,0,1,3.4-5,16,16,0,0,1,5.05-3.42,15.52,15.52,0,0,1,6.23-1.26,14.63,14.63,0,0,1,4.4.65,15.63,15.63,0,0,1,3.76,1.75,13.89,13.89,0,0,1,2.91,2.48,9.55,9.55,0,0,1,1.78,2.85c-.05-1.14-.11-2.28-.16-3.42s-.11-2.27-.16-3.41V26.35h-5.69V23.09h9.26V80.82h6v3.25h-9.27ZM331,68.83a12.31,12.31,0,0,0,1,4.89,12.9,12.9,0,0,0,2.64,4,12,12,0,0,0,4,2.69,12.63,12.63,0,0,0,5,1,12.27,12.27,0,0,0,5-1,12.51,12.51,0,0,0,6.67-6.69,12.31,12.31,0,0,0,1-4.89,12.66,12.66,0,0,0-1-4.94,12.41,12.41,0,0,0-2.68-4,12.62,12.62,0,0,0-4-2.7,12.43,12.43,0,0,0-5-1,12.81,12.81,0,0,0-5,1,12,12,0,0,0-4,2.7,12.81,12.81,0,0,0-2.64,4A12.66,12.66,0,0,0,331,68.83Z"/><path d="M371.45,80.82h6.34v-24h-5.85V53.58h8.54l.08,2.85c.05.92.11,1.76.16,2.52s.08,1.6.08,2.52a14.34,14.34,0,0,1,5.53-6.22,14.65,14.65,0,0,1,7.4-2.32l-.24,3.26a14.79,14.79,0,0,0-4.87.93,13,13,0,0,0-3.93,2.33A10.82,10.82,0,0,0,382,63a9.92,9.92,0,0,0-1,4.4V80.82h6v3.25H371.45Z"/><path d="M399.42,80.82h6.26v-24h-6.26V53.58h9.52V80.82h6v3.25H399.42Zm5.21-38a2.52,2.52,0,0,1,.81-1.91,2.6,2.6,0,0,1,1.87-.77,2.68,2.68,0,0,1,0,5.36,2.6,2.6,0,0,1-1.87-.77A2.52,2.52,0,0,1,404.63,42.77Z"/><path d="M449.59,80.82c0-.65,0-1.29,0-1.91s0-1.23,0-1.83a10.73,10.73,0,0,1-1.74,2.77,12.21,12.21,0,0,1-2.83,2.43A14.87,14.87,0,0,1,441.3,84a16.15,16.15,0,0,1-10.79-.61A16.41,16.41,0,0,1,425.45,80a15.85,15.85,0,0,1-3.39-5,15.4,15.4,0,0,1-1.25-6.22,15.15,15.15,0,0,1,1.25-6.14,16.26,16.26,0,0,1,3.39-5,15.92,15.92,0,0,1,5.06-3.42,15.47,15.47,0,0,1,6.22-1.26,14.74,14.74,0,0,1,4.41.65,16,16,0,0,1,3.76,1.75,13.89,13.89,0,0,1,2.91,2.48,9.76,9.76,0,0,1,1.78,2.85c-.06-1.14-.11-2.28-.16-3.42s-.11-2.27-.17-3.41V26.35h-5.69V23.09h9.27V80.82h6v3.25h-9.27Zm-25.53-12a12.3,12.3,0,0,0,1,4.89,12.75,12.75,0,0,0,2.65,4,11.91,11.91,0,0,0,4,2.69,12.56,12.56,0,0,0,5,1,12.3,12.3,0,0,0,5-1,12.6,12.6,0,0,0,6.67-6.69,12.3,12.3,0,0,0,1-4.89,12.65,12.65,0,0,0-1-4.94,12.41,12.41,0,0,0-11.63-7.7,12.73,12.73,0,0,0-5,1,11.94,11.94,0,0,0-4,2.7,12.79,12.79,0,0,0-3.62,9Z"/><path d="M494,53.58h8.7v3.26h-6.1V86.92a20.07,20.07,0,0,1-1.22,7.2A16.47,16.47,0,0,1,492,99.6a14.54,14.54,0,0,1-4.92,3.5,16,16,0,0,1-6.06,1.3,22.17,22.17,0,0,1-6.87-1.3,13.92,13.92,0,0,1-5.65-3.58L471,97a11.14,11.14,0,0,0,4.58,2.93,16.52,16.52,0,0,0,5.49,1,11.42,11.42,0,0,0,4.78-1A11.28,11.28,0,0,0,489.73,97a14.54,14.54,0,0,0,2.62-4.51,16.67,16.67,0,0,0,1-5.81V80.82c.06-.59.11-1.2.16-1.83s.11-1.23.17-1.83A11.23,11.23,0,0,1,491.82,80,12.6,12.6,0,0,1,489,82.33,17,17,0,0,1,485.15,84a15,15,0,0,1-4.49.65,15.82,15.82,0,0,1-6.3-1.26A16.53,16.53,0,0,1,469.25,80a15.82,15.82,0,0,1-3.44-5,15.4,15.4,0,0,1-1.26-6.22,15.16,15.16,0,0,1,1.26-6.14,16.13,16.13,0,0,1,8.55-8.46,15.82,15.82,0,0,1,6.3-1.26,14.45,14.45,0,0,1,4.49.69A17.24,17.24,0,0,1,489,55.41a12.74,12.74,0,0,1,2.9,2.52,11.37,11.37,0,0,1,1.76,2.81c0-1.19,0-2.39.12-3.58S493.92,54.78,494,53.58ZM467.8,68.83a12.14,12.14,0,0,0,1,4.89,12.83,12.83,0,0,0,2.68,4,12.13,12.13,0,0,0,4,2.69,12.91,12.91,0,0,0,5.07,1,12.67,12.67,0,0,0,9.05-3.67,12.44,12.44,0,0,0,2.72-4,12.14,12.14,0,0,0,1-4.89,12.49,12.49,0,0,0-1-4.94,12.36,12.36,0,0,0-2.72-4,12.56,12.56,0,0,0-9.05-3.67,13.08,13.08,0,0,0-5.07,1,12.15,12.15,0,0,0-4,2.7,12.74,12.74,0,0,0-2.68,4A12.49,12.49,0,0,0,467.8,68.83Z"/><path d="M538.29,64.32l-12.6,5-12.6,5a11.66,11.66,0,0,0,4.39,5.1,12.2,12.2,0,0,0,6.83,2,11.92,11.92,0,0,0,4.71-.92,11.45,11.45,0,0,0,3.83-2.58q.57.66,1,1.26c.33.41.68.83,1.06,1.26a16.18,16.18,0,0,1-4.8,3.09,14.81,14.81,0,0,1-5.85,1.14,15.37,15.37,0,0,1-6.22-1.26,16.44,16.44,0,0,1-5-3.37,15.76,15.76,0,0,1-3.42-5,15.88,15.88,0,0,1,0-12.4,15.61,15.61,0,0,1,3.42-5,16.46,16.46,0,0,1,5-3.38,15.37,15.37,0,0,1,6.22-1.26,12.61,12.61,0,0,1,4.63.86,14.68,14.68,0,0,1,4,2.35,16.46,16.46,0,0,1,5.32,8.18Zm-14-8.13a11.92,11.92,0,0,0-5.49,1.25,13,13,0,0,0-4.19,3.31,12.08,12.08,0,0,0-2.4,4.77,12.32,12.32,0,0,0-.12,5.54q5.45-2.19,10.9-4.35t11-4.35a11.58,11.58,0,0,0-4-4.45A10.07,10.07,0,0,0,524.31,56.19Z"/><path d="M570.07,52.82v3.46a6.18,6.18,0,0,0-4.55,2.08,11.9,11.9,0,0,0-2.33,4.45,22.13,22.13,0,0,0-.84,5.24c-.06,1.78-.1,3.26-.1,4.45V87a23.53,23.53,0,0,1-.79,7,7.48,7.48,0,0,1-2,3.47,4.75,4.75,0,0,1-2.86,1.13c-1.09.07-2.23.1-3.42.1H548.9V95.94h5.44a4,4,0,0,0,4.11-2.41q1-2.43,1-8.44V67.72a18.77,18.77,0,0,1,.7-5.52,15,15,0,0,1,1.68-3.8A9.86,9.86,0,0,1,564,56c.76-.59,1.44-1.08,2-1.48a14.56,14.56,0,0,1-2.47-1.68,8.62,8.62,0,0,1-2.08-2.76A17.93,17.93,0,0,1,560,45.47a38,38,0,0,1-.55-7.15V24c0-4.08-.34-6.92-1-8.54a4,4,0,0,0-4.11-2.41H548.9V10.29h4.25c1.19,0,2.33,0,3.42.1a4.75,4.75,0,0,1,2.86,1.13,7.49,7.49,0,0,1,2,3.46,23.65,23.65,0,0,1,.79,7V36.6c0,1.18,0,2.68.1,4.5a21.65,21.65,0,0,0,.84,5.24,12.55,12.55,0,0,0,2.33,4.45A5.81,5.81,0,0,0,570.07,52.82Z"/></g></g></svg>